<svg width="28" height="30" viewBox="0 0 28 30" fill="none" xmlns="http://www.w3.org/2000/svg">
<path d="M16.3929 4.71429C16.3929 3.93284 16.073 3.18341 15.5037 2.63085C14.9344 2.07828 14.1623 1.76786 13.3571 1.76786C12.552 1.76786 11.7799 2.07828 11.2106 2.63085C10.6413 3.18341 10.3214 3.93284 10.3214 4.71429H16.3929ZM8.5 4.71429C8.5 3.46398 9.01173 2.26488 9.92262 1.38078C10.8335 0.496682 12.0689 0 13.3571 0C14.6453 0 15.8808 0.496682 16.7917 1.38078C17.7026 2.26488 18.2143 3.46398 18.2143 4.71429H25.8036C26.0451 4.71429 26.2768 4.80741 26.4475 4.97318C26.6183 5.13895 26.7143 5.36378 26.7143 5.59821C26.7143 5.83265 26.6183 6.05748 26.4475 6.22325C26.2768 6.38902 26.0451 6.48214 25.8036 6.48214H24.2129L23.596 13.6655C21.6226 12.8508 19.4163 12.7381 17.3657 13.3474C15.3151 13.9566 13.5518 15.2486 12.3864 16.9958C11.2209 18.743 10.7281 20.8334 10.9948 22.8987C11.2615 24.9639 12.2705 26.8716 13.8441 28.2857H9.12171C7.82728 28.2856 6.58014 27.8134 5.62761 26.9627C4.67508 26.1119 4.08673 24.9448 3.97921 23.6928L2.50143 6.48214H0.910714C0.669178 6.48214 0.437534 6.38902 0.266742 6.22325C0.0959499 6.05748 0 5.83265 0 5.59821C0 5.36378 0.0959499 5.13895 0.266742 4.97318C0.437534 4.80741 0.669178 4.71429 0.910714 4.71429H8.5ZM27.9286 21.8036C27.9286 23.8353 27.097 25.7839 25.6168 27.2205C24.1366 28.6572 22.129 29.4643 20.0357 29.4643C17.9424 29.4643 15.9348 28.6572 14.4546 27.2205C12.9744 25.7839 12.1429 23.8353 12.1429 21.8036C12.1429 19.7718 12.9744 17.8233 14.4546 16.3866C15.9348 14.95 17.9424 14.1429 20.0357 14.1429C22.129 14.1429 24.1366 14.95 25.6168 16.3866C27.097 17.8233 27.9286 19.7718 27.9286 21.8036ZM20.0357 20.9703L16.8227 17.8506C16.7087 17.74 16.5541 17.6778 16.3929 17.6778C16.2316 17.6778 16.077 17.74 15.963 17.8506C15.849 17.9613 15.7849 18.1114 15.7849 18.2679C15.7849 18.4243 15.849 18.5744 15.963 18.6851L19.1772 21.8036L15.963 24.9221C15.849 25.0327 15.7849 25.1828 15.7849 25.3393C15.7849 25.4958 15.849 25.6458 15.963 25.7565C16.077 25.8672 16.2316 25.9293 16.3929 25.9293C16.5541 25.9293 16.7087 25.8672 16.8227 25.7565L20.0357 22.6368L23.2487 25.7565C23.3627 25.8672 23.5173 25.9293 23.6786 25.9293C23.8398 25.9293 23.9944 25.8672 24.1084 25.7565C24.2224 25.6458 24.2865 25.4958 24.2865 25.3393C24.2865 25.1828 24.2224 25.0327 24.1084 24.9221L20.8942 21.8036L24.1084 18.6851C24.2224 18.5744 24.2865 18.4243 24.2865 18.2679C24.2865 18.1114 24.2224 17.9613 24.1084 17.8506C23.9944 17.74 23.8398 17.6778 23.6786 17.6778C23.5173 17.6778 23.3627 17.74 23.2487 17.8506L20.0357 20.9703Z" fill="#FF3A00"/>
</svg>
