<svg width="27" height="28" viewBox="0 0 27 28" fill="none" xmlns="http://www.w3.org/2000/svg">
<path fill-rule="evenodd" clip-rule="evenodd" d="M15.2575 0.874988C18.2575 1.06249 21.07 2.56249 23.1325 4.62499C25.57 7.24999 26.8825 10.4375 26.8825 14.1875C26.8825 17.1875 25.7575 20 23.8825 22.4375C22.0075 24.6875 19.3825 26.375 16.3825 26.9375C13.3825 27.5 10.3825 27.125 7.75749 25.625C5.13249 24.125 3.06999 21.875 1.94499 19.0625C0.819987 16.25 0.632487 13.0625 1.56999 10.25C2.50749 7.24999 4.19499 4.81249 6.81999 3.12499C9.25749 1.43749 12.2575 0.687488 15.2575 0.874988ZM16.195 25.0625C18.6325 24.5 20.8825 23.1875 22.57 21.125C24.07 19.0625 25.0075 16.625 24.82 14C24.82 11 23.695 7.99999 21.6325 5.93749C19.7575 4.06249 17.5075 2.93749 14.8825 2.74999C12.445 2.56249 9.81999 3.12499 7.75749 4.62499C5.69499 6.12499 4.19499 8.18749 3.44499 10.8125C2.69499 13.25 2.69499 15.875 3.81999 18.3125C4.94499 20.75 6.63249 22.625 8.88249 23.9375C11.1325 25.25 13.7575 25.625 16.195 25.0625ZM13.945 13.0625L18.445 8.37499L19.7575 9.68749L15.2575 14.375L19.7575 19.0625L18.445 20.375L13.945 15.6875L9.44499 20.375L8.13249 19.0625L12.6325 14.375L8.13249 9.68749L9.44499 8.37499L13.945 13.0625Z" fill="#F24E1E"/>
</svg>
