<svg width="16" height="18" viewBox="0 0 16 18" fill="none" xmlns="http://www.w3.org/2000/svg">
<path d="M5.68871 18C5.68871 18 7.5 18 7.52941 18C8.5 18 11.2941 18 11.4753 18V13.1149C11.5066 12.7471 11.4522 12.3774 11.3157 12.0309C11.1792 11.6843 10.9638 11.369 10.6842 11.1065C13.2903 10.8353 15.9994 9.92656 15.9994 5.77925C16.0186 4.70655 15.5895 3.66851 14.802 2.88216C15.1571 1.95105 15.1165 0.92956 14.6882 0.0252428C14.6882 0.0252428 13.7129 -0.265972 11.4861 1.12985C9.5776 0.647834 7.56469 0.647834 5.6562 1.12985C3.42935 -0.265972 2.45409 0.0252428 2.45409 0.0252428C2.02255 0.928863 1.98182 1.95152 2.34031 2.88216C1.55126 3.66801 1.12032 4.70595 1.13749 5.77925C1.13749 9.91651 3.85738 10.8404 6.44724 11.1115C6.02205 11.4963 5.75886 12.009 5.70496 12.5575C5.02228 12.8337 3.3535 13.3107 2.31322 11.6588C2.12719 11.3596 1.86993 11.1036 1.56102 10.9104C1.25212 10.7173 0.899716 10.592 0.530659 10.5441C0.530659 10.5441 -0.607145 10.5341 0.449388 11.2019C1.08312 11.5704 1.55096 12.1395 1.76599 12.8036C1.76599 12.8036 2.43784 14.9023 5.68871 14.2496V18Z" fill="white"/>
</svg>
