<svg width="15" height="18" viewBox="0 0 15 18" fill="none" xmlns="http://www.w3.org/2000/svg">
<path d="M5.33316 18C5.33316 18 7.03125 18 7.05882 18C7.96875 18 10.5882 18 10.7581 18V13.1149C10.7875 12.7471 10.7365 12.3774 10.6085 12.0309C10.4805 11.6843 10.2786 11.369 10.0164 11.1065C12.4597 10.8353 14.9994 9.92656 14.9994 5.77925C15.0174 4.70655 14.6152 3.66851 13.8769 2.88216C14.2098 1.95105 14.1717 0.92956 13.7702 0.0252428C13.7702 0.0252428 12.8559 -0.265972 10.7682 1.12985C8.979 0.647834 7.0919 0.647834 5.30269 1.12985C3.21502 -0.265972 2.30071 0.0252428 2.30071 0.0252428C1.89614 0.928863 1.85796 1.95152 2.19404 2.88216C1.45431 3.66801 1.0503 4.70595 1.0664 5.77925C1.0664 9.91651 3.6163 10.8404 6.04429 11.1115C5.64567 11.4963 5.39893 12.009 5.3484 12.5575C4.70839 12.8337 3.1439 13.3107 2.16864 11.6588C1.99424 11.3596 1.75306 11.1036 1.46346 10.9104C1.17386 10.7173 0.843483 10.592 0.497493 10.5441C0.497493 10.5441 -0.569198 10.5341 0.421301 11.2019C1.01542 11.5704 1.45403 12.1395 1.65562 12.8036C1.65562 12.8036 2.28547 14.9023 5.33316 14.2496V18Z" fill="white"/>
</svg>
