<svg width="25" height="25" viewBox="0 0 25 25" fill="none" xmlns="http://www.w3.org/2000/svg">
<path d="M18.3958 17.0457C17.7351 17.0457 17.1995 16.5102 17.1995 15.8495V8.8834C17.1995 6.53559 15.2894 4.62544 12.9416 4.62544C10.5937 4.62544 8.68359 6.53555 8.68359 8.8834V12.935C8.68359 13.5957 8.148 14.1313 7.4873 14.1313C6.82661 14.1313 6.29102 13.5957 6.29102 12.935V8.8834C6.29102 5.21626 9.27441 2.23286 12.9416 2.23286C16.6087 2.23286 19.5921 5.21626 19.5921 8.8834V15.8495C19.5921 16.5102 19.0565 17.0457 18.3958 17.0457Z" fill="#B1B4B5"/>
<path d="M20.2206 24.29H5.66309C4.30396 24.29 3.20215 23.1882 3.20215 21.8291V13.4126C3.20215 12.0535 4.30396 10.9517 5.66309 10.9517H20.2206C21.5797 10.9517 22.6815 12.0535 22.6815 13.4126V21.829C22.6815 23.1882 21.5797 24.29 20.2206 24.29Z" fill="#FFB636"/>
<path d="M5.33765 22.3067H5.21436C4.82603 22.3067 4.51123 21.9919 4.51123 21.6036V13.6381C4.51123 13.2498 4.82603 12.935 5.21436 12.935H5.33765C5.72598 12.935 6.04077 13.2498 6.04077 13.6381V21.6036C6.04077 21.9919 5.72598 22.3067 5.33765 22.3067Z" fill="#FFD469"/>
</svg>
