<svg width="71" height="57" viewBox="0 0 71 57" fill="none" xmlns="http://www.w3.org/2000/svg">
<ellipse cx="49.251" cy="17.75" rx="16.2503" ry="16.25" fill="#FFCA40" fill-opacity="0.7"/>
<ellipse cx="6.00011" cy="44.5" rx="2.50005" ry="2.5" fill="#FFCA40" fill-opacity="0.7"/>
<ellipse cx="45.7509" cy="42.25" rx="12.7503" ry="12.75" fill="#FF40BE" fill-opacity="0.7"/>
<ellipse cx="36.7508" cy="1.75" rx="1.75004" ry="1.75" fill="#FF40BE" fill-opacity="0.7"/>
<ellipse cx="64.2514" cy="29.75" rx="1.25003" ry="1.25" fill="#FF40BE" fill-opacity="0.7"/>
<ellipse cx="27.2506" cy="23.25" rx="18.7504" ry="18.75" fill="#C240FF" fill-opacity="0.7"/>
<ellipse cx="1.75004" cy="27.75" rx="1.75004" ry="1.75" fill="#C240FF" fill-opacity="0.7"/>
<ellipse cx="34.9933" cy="31.5" rx="26.4931" ry="25" fill="#407BFF" fill-opacity="0.6"/>
<ellipse cx="68.1507" cy="26" rx="2.64931" ry="2.5" fill="#407BFF" fill-opacity="0.7"/>
<path d="M24.72 39V27.2H20.08V25H31.96V27.2H27.32V39H24.72ZM33.9113 39V25H36.0513L42.1713 35.22H41.0513L47.0713 25H49.2113L49.2313 39H46.7713L46.7513 28.86H47.2713L42.1513 37.4H40.9913L35.7913 28.86H36.3913V39H33.9113Z" fill="black"/>
</svg>
