<svg width="10" height="10" viewBox="0 0 10 10" fill="none" xmlns="http://www.w3.org/2000/svg">
<g clip-path="url(#clip0_32_3417)">
<path d="M7.33882 6.46531C7.94401 5.63949 8.21506 4.61561 8.09776 3.59853C7.98046 2.58144 7.48346 1.64614 6.70617 0.979763C5.92889 0.313383 4.92867 -0.0349408 3.9056 0.0044799C2.88252 0.0439006 1.91206 0.468158 1.18837 1.19237C0.464668 1.91659 0.0411044 2.88735 0.0024158 3.91045C-0.0362728 4.93355 0.312766 5.93353 0.979703 6.71033C1.64664 7.48714 2.58229 7.98348 3.59946 8.10005C4.61663 8.21662 5.64031 7.94483 6.4657 7.33906H6.46507C6.48382 7.36406 6.50382 7.38781 6.52632 7.41093L8.93257 9.81718C9.04976 9.93446 9.20875 10.0004 9.37454 10.0004C9.54033 10.0005 9.69936 9.93469 9.81664 9.81749C9.93391 9.7003 9.99983 9.54132 9.99989 9.37553C9.99995 9.20973 9.93414 9.05071 9.81695 8.93343L7.4107 6.52718C7.38835 6.50456 7.36433 6.48367 7.33882 6.46468V6.46531ZM7.50007 4.06281C7.50007 4.51423 7.41116 4.96122 7.23841 5.37828C7.06566 5.79534 6.81245 6.17428 6.49325 6.49349C6.17405 6.81269 5.7951 7.06589 5.37805 7.23864C4.96099 7.41139 4.51399 7.50031 4.06257 7.50031C3.61115 7.50031 3.16416 7.41139 2.7471 7.23864C2.33004 7.06589 1.95109 6.81269 1.63189 6.49349C1.31269 6.17428 1.05949 5.79534 0.886737 5.37828C0.713986 4.96122 0.625073 4.51423 0.625073 4.06281C0.625073 3.15113 0.987237 2.27678 1.63189 1.63213C2.27655 0.987471 3.15089 0.625307 4.06257 0.625307C4.97425 0.625307 5.8486 0.987471 6.49325 1.63213C7.13791 2.27678 7.50007 3.15113 7.50007 4.06281Z" fill="#A09E9E"/>
</g>
<defs>
<clipPath id="clip0_32_3417">
<rect width="10" height="10" fill="white"/>
</clipPath>
</defs>
</svg>
