<svg width="30" height="30" viewBox="0 0 30 30" fill="none" xmlns="http://www.w3.org/2000/svg">
<path d="M2.76563 28.4975C1.21875 28.4975 0.515626 27.4216 1.21875 26.1215L13.7344 2.58542C14.4375 1.28533 15.5625 1.28533 16.2656 2.58542L28.7813 26.1215C29.4844 27.4216 28.7812 28.4975 27.2344 28.4975H2.76563Z" fill="#FFCE31"/>
<path d="M13.031 11.2827L14.3435 19.5763C14.4841 20.3833 15.5623 20.3833 15.7029 19.5763L16.9685 11.2827C17.2029 8.05487 12.7966 8.05487 13.031 11.2827Z" fill="#231F20"/>
<path d="M15 24.8214C16.0873 24.8214 16.9688 23.9784 16.9688 22.9385C16.9688 21.8987 16.0873 21.0557 15 21.0557C13.9127 21.0557 13.0312 21.8987 13.0312 22.9385C13.0312 23.9784 13.9127 24.8214 15 24.8214Z" fill="#231F20"/>
</svg>
